<mxfile host="app.diagrams.net" modified="2023-10-18T14:37:39.501Z" agent="Mozilla/5.0 (Windows NT 10.0; Win64; x64) AppleWebKit/537.36 (KHTML, like Gecko) Chrome/118.0.0.0 Safari/537.36" etag="mFG0WEZ0ZBHRN5mTEdhp" version="22.0.4" type="github">
  <diagram name="Page-1" id="-dXruJVgxMaLKvkVEY3G">
    <mxGraphModel dx="2074" dy="1120" grid="1" gridSize="10" guides="1" tooltips="1" connect="1" arrows="1" fold="1" page="1" pageScale="1" pageWidth="827" pageHeight="1169" math="0" shadow="0">
      <root>
        <mxCell id="0" />
        <mxCell id="1" parent="0" />
        <mxCell id="8-LtG-VGLFPtNfgD2GOT-5" style="edgeStyle=orthogonalEdgeStyle;rounded=0;orthogonalLoop=1;jettySize=auto;html=1;entryX=0.5;entryY=0;entryDx=0;entryDy=0;" edge="1" parent="1" source="8-LtG-VGLFPtNfgD2GOT-6" target="8-LtG-VGLFPtNfgD2GOT-28">
          <mxGeometry relative="1" as="geometry" />
        </mxCell>
        <mxCell id="8-LtG-VGLFPtNfgD2GOT-6" value="Import CSV" style="rounded=0;whiteSpace=wrap;html=1;" vertex="1" parent="1">
          <mxGeometry x="432" y="10" width="120" height="60" as="geometry" />
        </mxCell>
        <mxCell id="8-LtG-VGLFPtNfgD2GOT-7" value="" style="edgeStyle=orthogonalEdgeStyle;rounded=0;orthogonalLoop=1;jettySize=auto;html=1;" edge="1" parent="1" source="8-LtG-VGLFPtNfgD2GOT-8" target="8-LtG-VGLFPtNfgD2GOT-10">
          <mxGeometry relative="1" as="geometry" />
        </mxCell>
        <mxCell id="8-LtG-VGLFPtNfgD2GOT-8" value="Authenticate to Trakt" style="rounded=0;whiteSpace=wrap;html=1;" vertex="1" parent="1">
          <mxGeometry x="432" y="210" width="120" height="60" as="geometry" />
        </mxCell>
        <mxCell id="8-LtG-VGLFPtNfgD2GOT-9" value="" style="edgeStyle=orthogonalEdgeStyle;rounded=0;orthogonalLoop=1;jettySize=auto;html=1;" edge="1" parent="1" source="8-LtG-VGLFPtNfgD2GOT-10" target="8-LtG-VGLFPtNfgD2GOT-15">
          <mxGeometry relative="1" as="geometry" />
        </mxCell>
        <mxCell id="8-LtG-VGLFPtNfgD2GOT-10" value="For Each Record In CSV" style="rounded=0;whiteSpace=wrap;html=1;" vertex="1" parent="1">
          <mxGeometry x="432" y="310" width="120" height="60" as="geometry" />
        </mxCell>
        <mxCell id="8-LtG-VGLFPtNfgD2GOT-11" value="" style="edgeStyle=orthogonalEdgeStyle;rounded=0;orthogonalLoop=1;jettySize=auto;html=1;entryX=0.5;entryY=0;entryDx=0;entryDy=0;" edge="1" parent="1" source="8-LtG-VGLFPtNfgD2GOT-15" target="8-LtG-VGLFPtNfgD2GOT-17">
          <mxGeometry relative="1" as="geometry">
            <mxPoint x="492" y="519" as="targetPoint" />
          </mxGeometry>
        </mxCell>
        <mxCell id="8-LtG-VGLFPtNfgD2GOT-12" value="false" style="edgeLabel;html=1;align=center;verticalAlign=middle;resizable=0;points=[];" vertex="1" connectable="0" parent="8-LtG-VGLFPtNfgD2GOT-11">
          <mxGeometry x="0.038" y="5" relative="1" as="geometry">
            <mxPoint x="-7" as="offset" />
          </mxGeometry>
        </mxCell>
        <mxCell id="8-LtG-VGLFPtNfgD2GOT-13" value="" style="edgeStyle=orthogonalEdgeStyle;rounded=0;orthogonalLoop=1;jettySize=auto;html=1;" edge="1" parent="1" source="8-LtG-VGLFPtNfgD2GOT-15" target="8-LtG-VGLFPtNfgD2GOT-19">
          <mxGeometry relative="1" as="geometry" />
        </mxCell>
        <mxCell id="8-LtG-VGLFPtNfgD2GOT-14" value="true" style="edgeLabel;html=1;align=center;verticalAlign=middle;resizable=0;points=[];" vertex="1" connectable="0" parent="8-LtG-VGLFPtNfgD2GOT-13">
          <mxGeometry x="-0.0364" y="-1" relative="1" as="geometry">
            <mxPoint as="offset" />
          </mxGeometry>
        </mxCell>
        <mxCell id="8-LtG-VGLFPtNfgD2GOT-15" value="If item has ID" style="rounded=0;whiteSpace=wrap;html=1;" vertex="1" parent="1">
          <mxGeometry x="432" y="409" width="120" height="60" as="geometry" />
        </mxCell>
        <mxCell id="8-LtG-VGLFPtNfgD2GOT-16" value="" style="edgeStyle=orthogonalEdgeStyle;rounded=0;orthogonalLoop=1;jettySize=auto;html=1;" edge="1" parent="1" source="8-LtG-VGLFPtNfgD2GOT-17" target="8-LtG-VGLFPtNfgD2GOT-24">
          <mxGeometry relative="1" as="geometry" />
        </mxCell>
        <mxCell id="8-LtG-VGLFPtNfgD2GOT-17" value="Search on TMDB" style="rounded=0;whiteSpace=wrap;html=1;" vertex="1" parent="1">
          <mxGeometry x="432" y="515" width="120" height="60" as="geometry" />
        </mxCell>
        <mxCell id="8-LtG-VGLFPtNfgD2GOT-18" value="" style="edgeStyle=orthogonalEdgeStyle;rounded=0;orthogonalLoop=1;jettySize=auto;html=1;" edge="1" parent="1" source="8-LtG-VGLFPtNfgD2GOT-19" target="8-LtG-VGLFPtNfgD2GOT-26">
          <mxGeometry relative="1" as="geometry" />
        </mxCell>
        <mxCell id="8-LtG-VGLFPtNfgD2GOT-19" value="Add to import JSON" style="rounded=0;whiteSpace=wrap;html=1;" vertex="1" parent="1">
          <mxGeometry x="232" y="409" width="120" height="60" as="geometry" />
        </mxCell>
        <mxCell id="8-LtG-VGLFPtNfgD2GOT-20" style="edgeStyle=orthogonalEdgeStyle;rounded=0;orthogonalLoop=1;jettySize=auto;html=1;entryX=0.5;entryY=1;entryDx=0;entryDy=0;" edge="1" parent="1" source="8-LtG-VGLFPtNfgD2GOT-24" target="8-LtG-VGLFPtNfgD2GOT-19">
          <mxGeometry relative="1" as="geometry" />
        </mxCell>
        <mxCell id="8-LtG-VGLFPtNfgD2GOT-21" value="item found" style="edgeLabel;html=1;align=center;verticalAlign=middle;resizable=0;points=[];" vertex="1" connectable="0" parent="8-LtG-VGLFPtNfgD2GOT-20">
          <mxGeometry x="0.2042" y="-1" relative="1" as="geometry">
            <mxPoint x="-1" y="5" as="offset" />
          </mxGeometry>
        </mxCell>
        <mxCell id="8-LtG-VGLFPtNfgD2GOT-22" style="edgeStyle=orthogonalEdgeStyle;rounded=0;orthogonalLoop=1;jettySize=auto;html=1;entryX=0;entryY=0.5;entryDx=0;entryDy=0;exitX=1;exitY=0.5;exitDx=0;exitDy=0;" edge="1" parent="1" source="8-LtG-VGLFPtNfgD2GOT-24" target="8-LtG-VGLFPtNfgD2GOT-25">
          <mxGeometry relative="1" as="geometry">
            <mxPoint x="632.0000000000002" y="620" as="sourcePoint" />
            <mxPoint x="692" y="230" as="targetPoint" />
            <Array as="points">
              <mxPoint x="602" y="630" />
              <mxPoint x="602" y="630" />
            </Array>
          </mxGeometry>
        </mxCell>
        <mxCell id="8-LtG-VGLFPtNfgD2GOT-23" value="item not found" style="edgeLabel;html=1;align=center;verticalAlign=middle;resizable=0;points=[];" vertex="1" connectable="0" parent="8-LtG-VGLFPtNfgD2GOT-22">
          <mxGeometry x="-0.6112" y="-1" relative="1" as="geometry">
            <mxPoint x="36" y="-1" as="offset" />
          </mxGeometry>
        </mxCell>
        <mxCell id="8-LtG-VGLFPtNfgD2GOT-24" value="User select from top 3 IDs returned" style="rounded=0;whiteSpace=wrap;html=1;" vertex="1" parent="1">
          <mxGeometry x="432" y="600" width="120" height="60" as="geometry" />
        </mxCell>
        <mxCell id="8-LtG-VGLFPtNfgD2GOT-25" value="Log and Ignore record" style="rounded=0;whiteSpace=wrap;html=1;" vertex="1" parent="1">
          <mxGeometry x="672" y="600" width="120" height="60" as="geometry" />
        </mxCell>
        <mxCell id="8-LtG-VGLFPtNfgD2GOT-26" value="Send Import Request" style="rounded=0;whiteSpace=wrap;html=1;" vertex="1" parent="1">
          <mxGeometry x="70" y="409" width="120" height="60" as="geometry" />
        </mxCell>
        <mxCell id="8-LtG-VGLFPtNfgD2GOT-27" style="edgeStyle=orthogonalEdgeStyle;rounded=0;orthogonalLoop=1;jettySize=auto;html=1;entryX=0.5;entryY=0;entryDx=0;entryDy=0;" edge="1" parent="1" source="8-LtG-VGLFPtNfgD2GOT-28" target="8-LtG-VGLFPtNfgD2GOT-8">
          <mxGeometry relative="1" as="geometry" />
        </mxCell>
        <mxCell id="8-LtG-VGLFPtNfgD2GOT-28" value="Import config.json" style="rounded=0;whiteSpace=wrap;html=1;" vertex="1" parent="1">
          <mxGeometry x="432" y="110" width="120" height="60" as="geometry" />
        </mxCell>
      </root>
    </mxGraphModel>
  </diagram>
</mxfile>
